
<svg xmlns="http://www.w3.org/2000/svg" width="263" height="233" viewBox="0 0 263 233">
    <path d="M 26 24 L 25 98 L 16 102 L 16 119 L 25 124 L 26 185 L 31 189 L 43 189 L 47 204 L 75 204 L 78 189 L 191 189 L 193 203 L 220 205 L 225 201 L 226 189 L 238 189 L 243 185 L 244 124 L 253 119 L 253 102 L 244 98 L 244 47 L 235 42 L 233 23 L 216 25 L 215 43 L 175 43 L 171 49 L 155 49 L 145 56 L 145 60 L 155 66 L 171 66 L 175 72 L 188 73 L 187 99 L 86 99 L 85 68 L 95 66 L 98 56 L 111 56 L 114 47 L 129 47 L 129 42 L 114 42 L 111 33 L 98 33 L 95 23 Z" fill="gold"/>
</svg>
