<?xml version="1.0" encoding="utf-8"?>
<!-- Generator: Adobe Illustrator 27.2.0, SVG Export Plug-In . SVG Version: 6.00 Build 0)  -->
<svg version="1.1" id="Layer_1" xmlns="http://www.w3.org/2000/svg" xmlns:xlink="http://www.w3.org/1999/xlink" x="0px" y="0px"
	 viewBox="0 0 300 300" style="enable-background:new 0 0 300 300;" xml:space="preserve">
<style type="text/css">
	.st0{fill:#F4F4F4;}
	.st1{fill:#383838;}
	.st2{fill:#5B5B5B;}
</style>
<path class="st0" d="M99.4,21.9l-0.1,23.4c0,4.9,0,9.5,0.1,13c0.1,5.5,0.2,7.9,2.3,9.8c0.7,0.6,2.1,1.7,5.7,2.1v33.4
	c-1.2-0.1-2.1-0.1-3-0.1c-12.1,0-12.1,8.3-12.1,23.5v16.3l21,34.9l16.1,0.9v32.9l-0.1,32.6l-56.4-0.1c-64.1,0-64.7,0.4-67.1,2.4
	c-3.2,2.6-3.5,6.6-3.5,18.4c0,12.3,0,16,4.7,18.8l0.1,0.1l0.1,0.1c1.7,0.9,2.2,1.1,47.1,1.4c25.3,0.2,59.3,0.3,95.6,0.3
	c36.3,0,70.3-0.1,95.6-0.3c44.9-0.3,45.4-0.6,47.1-1.4l0.1-0.1l0.1-0.1c4.7-2.8,4.7-6.5,4.7-18.8c0-11.7-0.3-15.8-3.5-18.4
	c-2.4-1.9-2.9-2.3-67.1-2.3l-56.5,0.1l0.1-0.1l-0.1-32.6v-32.9l16.1-0.9l10.8-18l10.1-16.7V127c0-15.2,0-23.6-12-23.6
	c-0.9,0-1.8,0-2.9,0.1c0,0,0,0-0.1,0V69.5c0.4,0,0.6,0,0.9,0c2.5-0.1,3.8-0.7,5.6-2.4l0.2-0.2c2.6-2.8,2.6-5.3,2.4-13.4
	c-0.1-2.3-0.1-5.1-0.2-8.8l-0.1-22.5L99.4,21.9z"/>
<g>
	<g transform="translate(0.000000,300.000000) scale(0.100000,-0.100000)">
		<path class="st1" d="M1051,2725l-1-178c-1-98,1-182,5-185c4-4,22-7,41-7h35v-224v-225l-59,3c-90,4-92,0-92-177v-147l93-155l93-155
			l92-5l93-5V882l-1-326.3l155-85L1650,584l-1,298v383l93,5l92,5l93,154l93,153v148c0,179-2,183-91,179c-33-1-59,1-59,4
			c0,4,0,106,0,228v221l43.8-1.1c32,2.9,26.3-1.8,38.3,10.2c14,15,8.9,32.9,6.9,181.9l-2,169L1051,2725z M1950,1721v-119l-77-130
			l-78-131h-295h-295l-60,102c-33,56-61,104-63,107c-1,3,152,5,339,5c304,0,343,2,352,16c6,9,7,24,4,33c-6,14-42,16-367,16h-360v110
			v110h450h450V1721z M1470,1240c-44-37-50-37-50,0c0,29,2,30,43,30l42-1L1470,1240z M1580,1163l-1-68l-71-50c-40-27-76-51-80-53
			s-8,26-8,62v65l73,55c39,30,75,55,80,55C1577,1230,1580,1200,1580,1163z M1553,855c-15-11-51-37-80-58l-53-38v68v69l78,57l77,57
			l3-67C1581,879,1579,874,1553,855z M1580,720v-69l-75-56c-41-30-83.3-38-80-55c0.6-2.9-5,30-4,68v67l77,57c42,31,78,57,80,57
			C1579,790,1580,759,1580,720z"/>
	</g>
	<path class="st2" d="M135,250.1L72.9,250c-45,0-62.5,0.3-63.5,1.1c-1.1,0.9-1.4,4.3-1.4,14C8,276.8,8.2,278,9.9,279
		c2.7,1.4,277.5,1.4,280.2,0c1.7-1,1.9-2.2,1.9-13.9c0-9.7-0.3-13.1-1.4-14c-1-0.8-18.5-1.1-63.5-1.1l-62.1,0.1H135z"/>
</g>
</svg>
