
<svg xmlns="http://www.w3.org/2000/svg" width="324" height="321" viewBox="0 0 324 321">
    <path d="M 33 194 L 33 291 L 37 295 L 284 295 L 288 291 L 288 194 L 283 189 L 230 190 L 175 266 L 146 266 L 91 190 L 38 189 Z" fill="cornflowerblue"/><path d="M 39 124 L 40 130 L 156 242 L 169 242 L 282 128 L 281 121 L 269 109 L 260 109 L 160 207 L 63 110 L 59 108 L 52 109 Z" fill="Gray"/><path d="M 110 40 L 107 42 L 105 46 L 105 50 L 124 95 L 128 98 L 139 100 L 139 164 L 158 184 L 163 184 L 182 164 L 182 100 L 192 99 L 198 94 L 215 53 L 216 46 L 214 42 L 211 40 Z" fill="cornflowerblue"/>
</svg>
